<svg width="180" height="32" viewBox="0 0 180 32" fill="none" xmlns="http://www.w3.org/2000/svg">
<g clip-path="url(#clip0_1170_89420)">
<path d="M127.824 9.79834C126.109 9.80588 124.4 9.99764 122.727 10.3703L123.596 13.9775C124.986 13.6778 126.402 13.5232 127.824 13.5162C130.204 13.5162 131.77 14.7547 132.388 17.0565H126.532C122.132 17.0565 120.125 19.9095 120.125 22.5595C120.131 23.3023 120.294 24.0355 120.603 24.7111C120.912 25.3867 121.359 25.9896 121.917 26.4803C123.148 27.5261 124.719 28.0834 126.334 28.0464C128.799 28.0464 130.993 26.9577 132.688 25.7238V27.8272H136.394V19.5635C136.394 16.4199 135.538 13.9452 133.857 12.2039C132.33 10.6309 130.245 9.79834 127.824 9.79834ZM132.688 20.7582C132.188 21.3103 131.648 21.8252 131.073 22.2989C129.92 23.2214 128.183 24.3423 126.334 24.3423C124.692 24.3423 123.831 23.4405 123.831 22.548C123.831 21.4224 124.842 20.7513 126.532 20.7513H132.688V20.7582Z" fill="#F23382"/>
<path d="M49.839 24.2913C48.3888 24.2994 46.9856 23.7778 45.8928 22.8245C45.5246 22.4928 45.2061 22.1099 44.9471 21.6874C47.4103 21.609 49.7605 20.7972 51.4327 19.381C52.918 18.1241 53.739 16.505 53.739 14.8191C53.739 11.9545 51.4673 9.79346 48.4551 9.79346C46.6585 9.79346 44.7165 10.6007 43.2612 11.9522C41.9927 13.1308 40.4935 15.2734 40.4935 18.8045C40.4715 20.0759 40.7202 21.3375 41.2232 22.5054C41.7263 23.6733 42.4721 24.7208 43.4111 25.5783C45.1803 27.1512 47.4694 28.0131 49.8366 27.9976C51.0445 28.019 52.2438 27.7919 53.3603 27.3305C54.4767 26.8691 55.4864 26.1832 56.3268 25.3153C58.045 23.5048 58.9561 20.9724 58.9561 17.9926H55.2451C55.2451 21.8788 53.174 24.2913 49.839 24.2913ZM44.2276 17.9811C44.5943 14.6207 47.1613 13.5044 48.4528 13.5044C49.6175 13.5044 50.0304 14.2148 50.0304 14.8237C50.0304 15.6009 49.41 16.2421 49.0386 16.5534C47.8832 17.5313 46.075 18.0526 44.2276 17.9811Z" fill="#F23382"/>
<path d="M82.7674 9.79818C81.6314 9.79731 80.5088 10.0445 79.4782 10.5226C78.4477 11.0006 77.5339 11.6979 76.8008 12.5658C76.0682 11.6966 75.1546 10.9979 74.1237 10.5186C73.0929 10.0393 71.9699 9.79102 70.8331 9.79102C69.6963 9.79102 68.5733 10.0393 67.5425 10.5186C66.5117 10.9979 65.598 11.6966 64.8654 12.5658C64.1316 11.6981 63.2174 11.001 62.1865 10.5229C61.1556 10.0449 60.0328 9.7976 58.8965 9.79818V13.5161C59.9862 13.516 61.0315 13.9478 61.8035 14.7168C62.5755 15.4858 63.0114 16.5294 63.0157 17.6191V27.8294H66.722V17.6191C66.7474 16.5444 67.1922 15.5223 67.9613 14.7712C68.7304 14.0201 69.7627 13.5997 70.8377 13.5997C71.9127 13.5997 72.9451 14.0201 73.7141 14.7712C74.4832 15.5223 74.928 16.5444 74.9534 17.6191V27.8294H78.6528V17.6191C78.6783 16.5444 79.1231 15.5223 79.8922 14.7712C80.6612 14.0201 81.6936 13.5997 82.7686 13.5997C83.8436 13.5997 84.8759 14.0201 85.645 14.7712C86.4141 15.5223 86.8588 16.5444 86.8843 17.6191V27.8294H90.5883V17.6191C90.5828 15.5465 89.7571 13.5604 88.2916 12.0949C86.8261 10.6294 84.84 9.80366 82.7674 9.79818Z" fill="#F23382"/>
<path d="M29.0476 9.79843C27.8906 9.79801 26.7481 10.0548 25.7026 10.5502C24.6571 11.0456 23.7349 11.7673 23.0026 12.6629C22.2594 11.7622 21.3253 11.0379 20.2679 10.5425C19.2104 10.0471 18.0561 9.79294 16.8884 9.79843C14.9701 9.80112 13.106 10.4349 11.5837 11.602C9.5564 10.4027 7.01709 9.79843 3.99805 9.79843V13.5163C5.96538 13.5163 7.63289 13.8277 8.98442 14.4388C7.68685 16.4578 6.98867 18.8035 6.97096 21.2034C6.97096 23.097 7.43223 24.7506 8.27406 25.9799C9.21045 27.3315 10.6081 28.1064 12.1119 28.1064C14.9049 28.1064 17.0106 25.5694 17.0106 22.2021C17.0106 19.9741 16.5678 16.7821 14.4874 14.1298C15.223 13.7256 16.0491 13.5145 16.8884 13.5163C19.3585 13.5163 21.222 15.5044 21.222 18.129V27.8319H24.9261V17.6193C24.9515 16.5446 25.3963 15.5225 26.1654 14.7715C26.9344 14.0204 27.9668 13.5999 29.0418 13.5999C30.1168 13.5999 31.1491 14.0204 31.9182 14.7715C32.6873 15.5225 33.1321 16.5446 33.1575 17.6193V27.8296H36.8638V17.6193C36.8584 15.5476 36.0333 13.5622 34.5687 12.0968C33.1042 10.6314 31.1193 9.80512 29.0476 9.79843ZM12.1073 24.4024C11.4015 24.4024 10.6727 23.2054 10.6727 21.2034C10.6874 19.6652 11.0963 18.1564 11.8605 16.8213C13.039 18.5696 13.2996 20.6776 13.2996 22.1998C13.2996 23.2607 12.843 24.4024 12.1073 24.4024Z" fill="#F23382"/>
<path d="M148.536 24.2917C147.709 24.2922 146.892 24.1023 146.149 23.7366C145.407 23.3709 144.758 22.8392 144.254 22.1827C143.75 21.5262 143.404 20.7625 143.242 19.9507C143.08 19.1389 143.108 18.3008 143.322 17.5012C143.536 16.7017 143.931 15.9621 144.477 15.3398C145.023 14.7175 145.705 14.2292 146.469 13.9126C147.234 13.596 148.062 13.4597 148.888 13.5141C149.713 13.5686 150.516 13.8124 151.232 14.2267L153.078 11.0185C151.343 10.0162 149.326 9.61442 147.339 9.87541C145.353 10.1364 143.508 11.0456 142.091 12.462C140.674 13.8783 139.764 15.7227 139.502 17.709C139.24 19.6954 139.641 21.7126 140.642 23.4479C141.644 25.1832 143.19 26.5395 145.041 27.3065C146.892 28.0735 148.944 28.2083 150.879 27.6899C152.815 27.1716 154.525 26.0292 155.745 24.4398C156.964 22.8504 157.626 20.9029 157.626 18.8994H153.929C153.927 20.3289 153.358 21.6994 152.347 22.7103C151.336 23.7211 149.966 24.2898 148.536 24.2917Z" fill="#F23382"/>
<path d="M106.744 9.79822C105.775 9.7972 104.807 9.89457 103.857 10.0888V4H100.148V11.4404C99.0592 12.0346 98.0644 12.787 97.1961 13.6729C94.9889 15.9193 93.7227 18.8646 93.7227 21.7452C93.7227 23.5742 94.2254 25.1494 95.1734 26.3003C95.6236 26.8582 96.1922 27.3092 96.8379 27.6207C97.4836 27.9322 98.1905 28.0964 98.9074 28.1016C101.29 28.1016 103.855 26.2565 103.855 22.1973V13.8943C104.796 13.635 105.768 13.5077 106.744 13.5161C110.817 13.5161 113.348 16.0808 113.348 20.2046V27.8387H117.054V20.2046C117.054 17.1948 116.071 14.607 114.215 12.7181C112.358 10.8292 109.759 9.79822 106.744 9.79822ZM100.148 22.2019C100.148 23.558 99.6731 24.4022 98.9074 24.4022C98.0356 24.4022 97.429 23.3113 97.429 21.7498C97.429 19.854 98.3285 17.8036 99.8391 16.2653C99.936 16.1661 100.04 16.0669 100.148 15.9655V22.2019Z" fill="#F23382"/>
<path d="M171.333 18.8692C173.702 16.4444 175.026 13.1881 175.023 9.79822H171.321C171.319 11.9419 170.577 14.0191 169.22 15.6792C167.864 17.3393 165.976 18.4807 163.876 18.9107V4H160.17V27.8294H163.876V22.6701C165.447 22.4462 166.962 21.9332 168.346 21.1571L171.822 27.8294H176.001L171.333 18.8692Z" fill="#F23382"/>
</g>
<defs>
<clipPath id="clip0_1170_89420">
<rect width="172" height="24.1085" fill="white" transform="translate(4 4)"/>
</clipPath>
</defs>
</svg>
